<svg width="1200" height="400" viewBox="0 0 1200 400" fill="none" xmlns="http://www.w3.org/2000/svg">
  <rect width="1200" height="400" fill="white"/>
  <path d="M113 307V105H172L242 204L311 105H371V307H323V182L259 279H225L161 182V307H113Z" fill="#0D9488"/>
  <path d="M520 312C446 312 397 271 397 206C397 141 446 100 520 100C594 100 644 141 644 206C644 271 594 312 520 312ZM520 273C570 273 601 247 601 206C601 165 570 139 520 139C470 139 439 165 439 206C439 247 470 273 520 273Z" fill="#0D9488"/>
  <path d="M635 105H696L755 163L814 105H876L786 206L880 307H818L755 244L691 307H628L724 206L635 105Z" fill="#0D9488"/>
  <path d="M950 105H1002L1103 307H1051L976 174L899 307H847L950 105Z" fill="#0D9488"/>
  <path d="M1094 120C1094 111 1101 104 1111 104C1121 104 1128 111 1128 120C1128 130 1121 137 1111 137C1101 137 1094 130 1094 120ZM1111 98C1098 98 1088 108 1088 120C1088 133 1098 143 1111 143C1124 143 1134 133 1134 120C1134 108 1124 98 1111 98ZM1106 134V122H1110L1118 134H1123L1115 122C1119 121 1122 118 1122 113C1122 106 1117 104 1111 104H1101V134H1106ZM1106 118V108H1111C1115 108 1118 109 1118 113C1118 117 1115 118 1111 118H1106Z" fill="#0D9488"/>
</svg>
