<svg width="1200" height="800" viewBox="0 0 1200 800" fill="none" xmlns="http://www.w3.org/2000/svg">
  <rect width="1200" height="800" rx="32" fill="#0B1220"/>
  <rect x="56" y="56" width="1088" height="688" rx="28" fill="#111827"/>
  <rect x="92" y="96" width="360" height="40" rx="20" fill="#38BDF8"/>
  <rect x="92" y="164" width="220" height="18" rx="9" fill="#475569"/>
  <rect x="92" y="196" width="320" height="18" rx="9" fill="#475569"/>
  <circle cx="848" cy="370" r="196" fill="#0F172A" stroke="#334155" stroke-width="4"/>
  <circle cx="848" cy="370" r="108" fill="#1D4ED8" fill-opacity="0.28" stroke="#60A5FA" stroke-width="4"/>
  <circle cx="848" cy="370" r="22" fill="#E2E8F0"/>
  <path d="M848 348L884 296" stroke="#E2E8F0" stroke-width="10" stroke-linecap="round"/>
  <path d="M846 392L806 448" stroke="#E2E8F0" stroke-width="10" stroke-linecap="round"/>
  <rect x="110" y="318" width="364" height="210" rx="28" fill="#1E293B"/>
  <rect x="146" y="354" width="136" height="136" rx="20" fill="#E2E8F0"/>
  <circle cx="214" cy="404" r="36" fill="#94A3B8"/>
  <rect x="316" y="360" width="118" height="20" rx="10" fill="#CBD5E1"/>
  <rect x="316" y="398" width="90" height="18" rx="9" fill="#64748B"/>
  <rect x="316" y="432" width="108" height="18" rx="9" fill="#64748B"/>
  <rect x="92" y="624" width="228" height="48" rx="24" fill="#E2E8F0"/>
</svg>
