<svg width="1200" height="800" viewBox="0 0 1200 800" fill="none" xmlns="http://www.w3.org/2000/svg">
  <rect width="1200" height="800" rx="32" fill="#0B1220"/>
  <rect x="56" y="56" width="1088" height="688" rx="28" fill="#111827"/>
  <rect x="92" y="96" width="340" height="40" rx="20" fill="#22C55E"/>
  <rect x="92" y="164" width="240" height="18" rx="9" fill="#475569"/>
  <rect x="92" y="196" width="328" height="18" rx="9" fill="#475569"/>
  <rect x="92" y="274" width="436" height="300" rx="28" fill="#0F172A" stroke="#334155" stroke-width="4"/>
  <path d="M126 446C166 390 208 486 252 428C286 383 318 361 352 430C384 495 432 388 494 430" stroke="#22C55E" stroke-width="10" stroke-linecap="round"/>
  <rect x="608" y="180" width="444" height="420" rx="28" fill="#1E293B"/>
  <rect x="648" y="228" width="180" height="180" rx="20" fill="#E2E8F0"/>
  <circle cx="738" cy="318" r="52" fill="#94A3B8"/>
  <rect x="864" y="228" width="148" height="22" rx="11" fill="#CBD5E1"/>
  <rect x="864" y="268" width="124" height="18" rx="9" fill="#64748B"/>
  <rect x="864" y="304" width="136" height="18" rx="9" fill="#64748B"/>
  <rect x="648" y="460" width="364" height="84" rx="20" fill="#0F172A"/>
  <rect x="92" y="624" width="208" height="48" rx="24" fill="#E2E8F0"/>
</svg>
