<svg width="1200" height="800" viewBox="0 0 1200 800" fill="none" xmlns="http://www.w3.org/2000/svg">
  <rect width="1200" height="800" rx="32" fill="#0C1420"/>
  <rect x="56" y="56" width="1088" height="688" rx="28" fill="#101826"/>
  <rect x="92" y="96" width="320" height="40" rx="20" fill="#10B981"/>
  <rect x="92" y="164" width="220" height="18" rx="9" fill="#475569"/>
  <rect x="92" y="196" width="340" height="18" rx="9" fill="#475569"/>
  <rect x="714" y="120" width="290" height="520" rx="36" fill="#0F172A" stroke="#334155" stroke-width="4"/>
  <circle cx="859" cy="598" r="18" fill="#334155"/>
  <rect x="754" y="174" width="210" height="40" rx="20" fill="#1E293B"/>
  <rect x="770" y="250" width="178" height="178" rx="24" fill="#16A34A"/>
  <path d="M859 295C824 250 760 280 770 348C829 354 854 322 859 295Z" fill="#DCFCE7"/>
  <path d="M859 295C894 250 958 280 948 348C889 354 864 322 859 295Z" fill="#BBF7D0"/>
  <rect x="794" y="454" width="130" height="18" rx="9" fill="#64748B"/>
  <rect x="794" y="486" width="98" height="18" rx="9" fill="#64748B"/>
  <rect x="92" y="300" width="486" height="260" rx="28" fill="#1E293B"/>
  <path d="M142 492C196 462 230 398 286 420C332 437 361 496 416 486C470 476 504 406 550 424" stroke="#10B981" stroke-width="12" stroke-linecap="round"/>
  <circle cx="180" cy="354" r="20" fill="#22C55E"/>
  <circle cx="250" cy="334" r="20" fill="#F59E0B"/>
  <circle cx="320" cy="364" r="20" fill="#38BDF8"/>
  <rect x="92" y="624" width="220" height="48" rx="24" fill="#E2E8F0"/>
</svg>
